<?xml version="1.0" encoding="utf-8"?>
<!-- Generator: Adobe Illustrator 21.0.2, SVG Export Plug-In . SVG Version: 6.00 Build 0)  -->
<svg version="1.1" id="f2473fb9-9653-4ee7-8806-669bab6c6842"
	 xmlns="http://www.w3.org/2000/svg" xmlns:xlink="http://www.w3.org/1999/xlink" x="0px" y="0px" viewBox="0 0 903.8 509.1"
	 style="enable-background:new 0 0 903.8 509.1;" xml:space="preserve">
<style type="text/css">
	.st0{fill:#F1F1F1;}
	.st1{fill:#E6E6E6;}
	.st2{fill:#FFFFFF;}
	.st3{fill:#E63331;}
	.st4{fill:#A0616A;}
	.st5{display:none;fill:#2F2E41;}
	.st6{fill:#2F2E41;}
	.st7{fill:#3F3D56;}
	.st8{fill:#9E616A;}
	.st9{fill:#CACACA;}
</style>
<path class="st0" d="M68,508.9l-1-1.8c12.8-6.9,28.6-15.5,36.9-29.6c8.2-13.9,8.4-32.7,0.5-49.2c-6.7-14-19-26.6-35.6-36.3
	c-3.3-1.9-6.7-3.7-10-5.5c-8-4.3-16.3-8.7-23.2-14.9c-9.4-8.6-16.6-23-11.2-35.9c3.6-8.4,11.6-14,20.7-14.5l0.1,2
	c-8.3,0.4-15.7,5.6-18.9,13.2C21.3,348.5,28,362,37,370.2c6.7,6.1,14.9,10.4,22.8,14.6c3.3,1.8,6.8,3.6,10.1,5.5
	c16.9,9.9,29.5,22.8,36.4,37.2c8.2,17.1,7.9,36.6-0.6,51.1C97.1,493.1,81,501.9,68,508.9z"/>
<ellipse class="st0" cx="57.7" cy="323.3" rx="17.5" ry="8.5"/>
<ellipse class="st0" cx="71.7" cy="379.3" rx="17.5" ry="8.5"/>
<ellipse class="st0" cx="39.7" cy="388.3" rx="17.5" ry="8.5"/>
<ellipse class="st0" cx="89.7" cy="435.3" rx="17.5" ry="8.5"/>
<ellipse class="st0" cx="124.7" cy="435.3" rx="17.5" ry="8.5"/>
<rect id="bc1144e2-c94b-4f66-aa77-0b454dfd4174" x="341" y="15.4" class="st1" width="562.8" height="267.1"/>
<rect id="ad6bb9d5-2e55-4525-b077-6ac2d5f26b45" x="357.1" y="38.3" class="st2" width="530.6" height="222.8"/>
<rect id="a1fdfaec-ef9f-458a-9330-7bb8c38fec43" x="340.8" y="0" class="st3" width="562.8" height="23.9"/>
<circle id="ac9f2818-2064-46b1-8104-b7d94390836e" class="st2" cx="358.5" cy="11.1" r="4.4"/>
<circle id="bd067119-2054-4d5f-9303-2e8fa40cc410" class="st2" cx="375.4" cy="11.1" r="4.4"/>
<circle id="ee5e9ca0-6fca-449b-8f84-cf683813bd65" class="st2" cx="392.2" cy="11.1" r="4.4"/>
<path id="acae6c4c-8028-4596-98db-d9926d2ed09f" class="st1" d="M594.4,91.2c-1.2,0-2.1,1-2.1,2.1s1,2.1,2.1,2.1h117.8
	c1.2,0,2.1-1,2.1-2.1s-1-2.1-2.1-2.1H594.4z"/>
<path id="a061bcdc-636b-4d12-a036-d7339f47b36a" class="st1" d="M594.4,104.1c-1.2,0-2.1,1-2.1,2.2c0,1.2,1,2.1,2.1,2.1h60.1
	c1.2,0,2.1-1,2.1-2.2c0-1.2-1-2.1-2.1-2.1H594.4z"/>
<path id="e4e4593e-e83d-4128-8cd7-f0323b36c2f2" class="st1" d="M591.5,166.4c-1.2,0-2.1,1-2.1,2.1s1,2.1,2.1,2.1h220.9
	c1.2,0,2.1-1,2.1-2.1s-1-2.1-2.1-2.1H591.5z"/>
<path id="bf45783c-1d79-4b4f-82bb-39fc8a52f7aa" class="st1" d="M591.5,179.3c-1.2,0-2.1,1-2.1,2.2c0,1.2,1,2.1,2.1,2.1h163.2
	c1.2,0,2.1-1,2.1-2.2c0-1.2-1-2.1-2.1-2.1H591.5z"/>
<path id="b544fc92-6fc6-4255-93fb-dee32d880d89" class="st1" d="M591.5,191.9c-1.2,0-2.1,1-2.1,2.2c0,1.2,1,2.1,2.1,2.1h220.9
	c1.2,0,2.1-1,2.1-2.2c0-1.2-1-2.1-2.1-2.1H591.5z"/>
<path id="e14bb681-aaa1-4454-9da9-28d0809a146c" class="st1" d="M591.5,204.8c-1.2,0-2.1,1-2.1,2.2c0,1.2,1,2.1,2.1,2.1h163.2
	c1.2,0,2.1-1,2.1-2.2c0-1.2-1-2.1-2.1-2.1H591.5z"/>
<circle class="st4" cx="476" cy="156.5" r="18.7"/>
<path class="st5" d="M470.1,141.5c0,0,8.7,2.3,13.2,3.3s4.1-1.7,4.1-1.7s5.9,0.8,5.6,0.2s2.5-3.9-0.8-7.6s-2.3-6.5-2.3-6.5H487
	l-0.8-1.1h-4.4c0,0-4.8-4.2-13.4-3s-18.7,4.5-19.6,9.7c-0.1,0.7-0.3,1.5-0.5,2.3c-2.3,9.9,2.6,19.1,7.8,27.9
	c1.3,2.2,7.4,6.8,7.2,3.6s-5.5-10.4-1.8-10.9S471.8,147.6,470.1,141.5z"/>
<path class="st3" d="M465.4,216.9c-3.6-0.3-7.2-0.9-10.7-1.8l0.2-3.7l1.6-29.6l0-0.2h32.9l5.2,27.3l0.7,3.7c-1.4,0.5-2.7,1-4.2,1.5
	c0,0,0,0,0,0c-2,0.6-3.9,1.1-5.9,1.6c-2.7,0.6-5.4,1-8.1,1.2c-2.1,0.2-4.2,0.3-6.3,0.3C469,217.1,467.2,217,465.4,216.9z"/>
<path class="st6" d="M444.2,211.6c-1.4-0.6-2.7-1.2-4-1.9l-0.6-0.3c-0.4-0.2-0.8-0.4-1.2-0.6c-0.5-0.3-1-0.6-1.5-0.9
	c-0.5-0.3-1-0.6-1.4-0.8c0,0,0,0-0.1,0c-1.6-1-3.2-2.1-4.8-3.3c-0.3-0.2-0.5-0.4-0.8-0.6l-0.3-4.4l0.4-0.2l26.4-16.8l0.4-0.2l0,0
	l3.7,0v13.9c2.1,3,3.5,9.4,4.4,17.8c0.1,1.2,0.2,2.4,0.3,3.7c-3.6-0.3-7.2-0.9-10.7-1.8c-0.4-0.1-0.7-0.2-1.1-0.3
	c-2.2-0.6-4.4-1.3-6.5-2.1c-0.7-0.2-1.3-0.5-1.9-0.8l-0.1,0C444.8,211.9,444.5,211.7,444.2,211.6z"/>
<path class="st6" d="M438.5,208.8c-0.5-0.3-1-0.6-1.5-0.9c-0.5-0.3-1-0.6-1.4-0.8c0,0,0,0-0.1,0c-1.6-1-3.2-2.1-4.8-3.3
	c-0.3-0.2-0.5-0.4-0.8-0.6c-0.1-0.1-0.2-0.2-0.4-0.3c-1-0.7-1.9-1.5-2.8-2.3c0,0-0.1-0.1-0.1-0.1c0.9-0.7,1.9-1.3,3-1.6l1.1,0.3
	l7.7,2.3l0,3.1L438.5,208.8z"/>
<path class="st6" d="M503.1,208.9c-0.5,0.2-0.9,0.5-1.4,0.7c-0.1,0.1-0.2,0.1-0.3,0.2c-0.6,0.3-1.2,0.6-1.8,0.9c0,0,0,0,0,0
	c0,0-0.1,0-0.1,0c-1.4,0.7-2.7,1.3-4.2,1.8c-1.4,0.5-2.7,1-4.2,1.5c0,0,0,0,0,0c-2,0.6-3.9,1.1-5.9,1.6c0-1.2,0.1-2.5,0.5-3.7l0-0.2
	l1.3-21.1l-1.7-9l5-0.7l27.5,14.8c0,0-3,3-15.5,9.5C501.2,205.7,502.8,207.6,503.1,208.9z"/>
<path class="st7" d="M476.8,213.2c-2,0.2-4,0.3-6,0.3c-1.9,0-3.9-0.1-5.8-0.3c0.1,1.2,0.2,2.4,0.3,3.7c1.8,0.2,3.6,0.2,5.5,0.2
	c2.1,0,4.2-0.1,6.3-0.3c2.7-0.3,5.4-0.7,8.1-1.2c0-1.2,0.1-2.5,0.5-3.7l0-0.2C482.8,212.4,479.8,212.9,476.8,213.2z M534.1,128.1
	c-12.2-34.9-50.3-53.4-85.3-41.2s-53.4,50.3-41.2,85.3c2.5,7.1,6.1,13.7,10.8,19.6c0.6,0.8,1.2,1.5,1.9,2.2c0.1,0.1,0.1,0.1,0.1,0.2
	c1.6,1.8,3.2,3.5,5,5.1c0.4,0.4,0.9,0.8,1.3,1.2c0,0,0.1,0.1,0.1,0.1c0.9,0.8,1.8,1.6,2.8,2.3c0.1,0.1,0.3,0.2,0.4,0.3
	c0.3,0.2,0.5,0.4,0.8,0.6c1.5,1.2,3.2,2.2,4.8,3.3c0,0,0,0,0.1,0c0.5,0.3,1,0.6,1.4,0.8c0.5,0.3,1,0.6,1.5,0.9
	c0.4,0.2,0.8,0.4,1.2,0.6l0.6,0.3c1.3,0.7,2.6,1.3,4,1.9c0.3,0.1,0.6,0.2,0.8,0.4l0.1,0c0.6,0.3,1.3,0.5,1.9,0.8
	c2.1,0.8,4.3,1.5,6.5,2.1c0.4,0.1,0.7,0.2,1.1,0.3c3.5,0.9,7.1,1.5,10.7,1.8c1.8,0.2,3.6,0.2,5.5,0.2c2.1,0,4.2-0.1,6.3-0.3
	c2.7-0.3,5.4-0.7,8.1-1.2c2-0.4,4-1,5.9-1.6c0,0,0,0,0,0c1.4-0.4,2.8-0.9,4.2-1.5c1.4-0.6,2.8-1.2,4.2-1.8c0,0,0.1,0,0.1,0
	c0,0,0,0,0,0c0.6-0.3,1.2-0.6,1.8-0.9c0.1,0,0.2-0.1,0.3-0.2c0.5-0.2,0.9-0.5,1.4-0.7c0,0,0,0,0.1,0c1.2-0.7,2.4-1.4,3.5-2.1
	c0.3-0.2,0.6-0.4,1-0.6c0.5-0.3,0.9-0.6,1.4-0.9c0.6-0.4,1.2-0.8,1.8-1.3c0.2-0.1,0.4-0.3,0.5-0.4c1.4-1.1,2.8-2.2,4.1-3.4
	C535.6,182.1,543,153.7,534.1,128.1L534.1,128.1z M514.3,196.2c-1.6,1.5-3.4,3-5.2,4.4c-0.4,0.3-0.8,0.6-1.2,0.9
	c-0.4,0.3-0.8,0.6-1.2,0.9c-0.3,0.2-0.7,0.5-1.1,0.7c0,0-0.1,0-0.1,0.1c-0.3,0.2-0.5,0.3-0.8,0.5c-0.8,0.5-1.6,1-2.5,1.5
	c-0.2,0.1-0.4,0.2-0.6,0.3c-0.1,0.1-0.2,0.1-0.3,0.2c-0.5,0.3-0.9,0.5-1.4,0.7c-0.1,0-0.1,0.1-0.2,0.1c0,0,0,0-0.1,0
	c-0.3,0.2-0.6,0.3-1,0.5c-0.3,0.1-0.5,0.3-0.8,0.4c-1.1,0.5-2.2,1-3.4,1.5c-1.2,0.5-2.4,0.9-3.6,1.3c-0.3,0.1-0.6,0.2-0.9,0.3
	c-1.4,0.5-2.9,0.9-4.3,1.2c-2.9,0.7-5.9,1.2-8.9,1.5c-2,0.2-4,0.3-6,0.3c-1.9,0-3.9-0.1-5.8-0.3c-3.4-0.3-6.8-0.9-10.2-1.8
	c-0.1,0-0.3-0.1-0.4-0.1c-2.7-0.7-5.4-1.6-8-2.7c-0.1-0.1-0.3-0.1-0.4-0.2c-0.2-0.1-0.3-0.1-0.4-0.2c-0.2-0.1-0.3-0.1-0.4-0.2
	c-1.1-0.5-2.2-1-3.3-1.6l-0.5-0.3c-1-0.5-2-1-2.9-1.6c-0.3-0.2-0.7-0.4-1-0.6c-0.4-0.2-0.8-0.5-1.1-0.7c-0.1-0.1-0.2-0.1-0.3-0.2
	c-0.8-0.6-1.7-1.2-2.5-1.8c-0.6-0.4-1.1-0.8-1.7-1.3c-0.4-0.3-0.7-0.6-1.1-0.9c-0.2-0.2-0.5-0.4-0.7-0.6c-0.3-0.3-0.6-0.5-0.9-0.8
	c-0.5-0.4-0.9-0.8-1.3-1.2c-1.7-1.6-3.3-3.2-4.8-5c-0.5-0.6-1-1.2-1.5-1.8c-0.1-0.1-0.2-0.2-0.3-0.4c-21.7-27.4-17.1-67.2,10.3-88.9
	c27.4-21.7,67.2-17.1,88.9,10.3C540.9,136.6,538.2,173.7,514.3,196.2L514.3,196.2z"/>
<polygon class="st4" points="163.4,496.7 175.7,496.7 181.5,449.4 163.4,449.4 "/>
<path class="st6" d="M160.3,492.7l24.1,0h0c8.5,0,15.4,6.9,15.4,15.4v0.5l-39.5,0L160.3,492.7z"/>
<polygon class="st4" points="209.4,496.7 221.7,496.7 227.5,449.4 209.4,449.4 "/>
<path class="st6" d="M206.3,492.7l24.1,0h0c8.5,0,15.4,6.9,15.4,15.4v0.5l-39.5,0L206.3,492.7z"/>
<path class="st8" d="M126.2,309.8c3.8-4.1,3.6-10.4-0.5-14.2c-0.4-0.4-0.9-0.8-1.4-1.1l8.5-34.7l-17.5,6.2l-5.4,32
	c-2.7,4.9-1,11,3.9,13.8C118,314.1,123.1,313.3,126.2,309.8L126.2,309.8z"/>
<path class="st8" d="M256.4,306.8c-3.8-4.1-3.6-10.4,0.5-14.2c0.4-0.4,0.9-0.8,1.4-1.1l-8.5-34.7l17.5,6.2l5.4,32
	c2.7,4.9,1,11-3.9,13.8C264.7,311.1,259.5,310.3,256.4,306.8z"/>
<polygon class="st6" points="142.4,285.5 159.4,484.6 184.2,482.3 194.2,328.5 203,389.4 204.8,486.1 227.3,484.6 239.8,380.5 
	236.7,279.7 151.3,271.1 "/>
<circle class="st4" cx="189.1" cy="78.6" r="25.8"/>
<path class="st5" d="M180.9,58c0,0,12,3.2,18.3,4.5s5.6-2.4,5.6-2.4s8.2,1.1,7.7,0.2s3.4-5.4-1.1-10.5s-3.2-9-3.2-9h-3.9l-1.1-1.5
	h-6c0,0-6.7-5.8-18.5-4.1s-25.8,6.3-27.1,13.4c-0.2,1-0.4,2-0.7,3.2c-3.2,13.6,3.6,26.4,10.8,38.5c1.8,3,10.2,9.4,10,5
	s-7.6-14.4-2.5-15.1S183.3,66.3,180.9,58z"/>
<path class="st3" d="M162.3,113.2h45.4l32.1,169.6c0,0-28,2.4-44,8.4s-42.6-13.7-42.6-13.7L162.3,113.2z"/>
<path class="st6" d="M167.9,132.3v-19.1l-5.1,0L125.2,137l8.2,130.9c0,0,9.6,43.7,24.3,43.2S183.6,155,167.9,132.3z"/>
<path class="st6" d="M137.3,140.6l-12.1-3.6c0,0-8.9,2.6-8.9,11.6s-7.7,136.9-7.7,136.9l24.5,2.2l5.2-65L137.3,140.6z"/>
<path class="st6" d="M204.3,125.6l-2.4-12.5l6.9-1l25,10c0,0,22.5,164.5,12.5,169.5s-16.8,1.1-16.8,1.1S196.7,171.4,202.5,155
	L204.3,125.6z"/>
<path class="st6" d="M216.3,124.6l4.3-1.9c0,0,12.5-6.2,19.6,6.3s32.1,152.5,32.1,152.5l-20.6,3.9l-15.4-50.4L216.3,124.6z"/>
<path class="st9" d="M382,509.1H1c-0.6,0-1-0.4-1-1s0.4-1,1-1h381c0.6,0,1,0.4,1,1S382.6,509.1,382,509.1z"/>
<path class="st6" d="M169.9,92.3c-0.4-1.1,0.2-2.3,1.5-2.7c0.2-0.1,0.4-0.1,0.6-0.1c1.5,0.1,2.9,0.7,3.9,1.7c1,1,2.1,1.9,3.4,2.6
	c1.3,0.6,3.1,0.5,3.9-0.6c0.7-1.1,0.2-2.5-0.2-3.8c-1.1-3.2-1.7-6.5-1.8-9.8c-0.1-3.7,0.5-7.6,2.7-10.4c2.9-3.7,8.2-5.1,13.1-5
	c5,0.1,9.9,1.5,14.8,2.4c1.7,0.3,3.7,0.5,4.8-0.7c1.2-1.3,0.8-3.3,0.3-5c-1.3-4.4-2.7-9-5.8-12.6c-3.3-3.7-8.1-6.1-13.4-6.8
	c-5-0.6-10.2,0-14.9,1.5c-7.8,2.2-14.6,6.5-19.6,12.3c-5.2,6.2-7.4,13.9-6.2,21.6c1.2,6.7,5.1,12.7,11,16.9L169.9,92.3z"/>
<path class="st6" d="M459.6,164.9c-0.3-0.8,0.2-1.7,1.1-1.9c0.1,0,0.3-0.1,0.4-0.1c1.1,0.1,2.1,0.5,2.8,1.2c0.7,0.7,1.5,1.4,2.4,1.9
	c0.9,0.4,2.2,0.4,2.8-0.5c0.5-0.8,0.2-1.8-0.1-2.7c-0.8-2.3-1.2-4.6-1.3-7c-0.1-2.7,0.3-5.4,2-7.5c2.1-2.7,5.9-3.7,9.4-3.6
	c3.6,0.1,7.1,1.1,10.6,1.7c1.2,0.2,2.7,0.3,3.5-0.5c0.9-0.9,0.5-2.4,0.2-3.6c-1-3.2-2-6.5-4.2-9c-2.4-2.7-5.8-4.4-9.6-4.9
	c-3.6-0.4-7.3,0-10.7,1.1c-5.6,1.6-10.5,4.7-14.1,8.9c-3.7,4.4-5.3,10-4.4,15.5c0.8,4.8,3.7,9.1,7.9,12.1L459.6,164.9z"/>
</svg>
